<mxfile host="app.diagrams.net" agent="Mozilla/5.0 (Windows NT 10.0; Win64; x64) AppleWebKit/537.36 (KHTML, like Gecko) Chrome/130.0.0.0 Safari/537.36" version="24.8.2">
  <diagram name="Page-1" id="861R5XqWkjenVKNn3XdG">
    <mxGraphModel dx="1247" dy="678" grid="1" gridSize="10" guides="1" tooltips="1" connect="1" arrows="1" fold="1" page="1" pageScale="1" pageWidth="850" pageHeight="1100" math="0" shadow="0">
      <root>
        <mxCell id="0" />
        <mxCell id="1" parent="0" />
        <mxCell id="OdxOix2kD28LtDTdaROv-9" value="&lt;p style=&quot;margin:0px;margin-top:4px;text-align:center;&quot;&gt;&lt;b&gt;Điểm danh&lt;/b&gt;&lt;/p&gt;&lt;hr size=&quot;1&quot; style=&quot;border-style:solid;&quot;&gt;&lt;div style=&quot;height:2px;&quot;&gt;&lt;/div&gt;" style="verticalAlign=top;align=left;overflow=fill;html=1;whiteSpace=wrap;" vertex="1" parent="1">
          <mxGeometry x="320" y="290" width="240" height="550" as="geometry" />
        </mxCell>
        <mxCell id="OdxOix2kD28LtDTdaROv-10" value="&lt;p style=&quot;margin:0px;margin-top:4px;text-align:center;&quot;&gt;&lt;b&gt;Sinh Viên&lt;/b&gt;&lt;/p&gt;&lt;hr size=&quot;1&quot; style=&quot;border-style:solid;&quot;&gt;&lt;div style=&quot;height:2px;&quot;&gt;&lt;/div&gt;" style="verticalAlign=top;align=left;overflow=fill;html=1;whiteSpace=wrap;" vertex="1" parent="1">
          <mxGeometry x="320" y="315" width="120" height="615" as="geometry" />
        </mxCell>
        <mxCell id="OdxOix2kD28LtDTdaROv-11" value="&lt;p style=&quot;margin:0px;margin-top:4px;text-align:center;&quot;&gt;&lt;b&gt;Hệ thống&lt;/b&gt;&lt;/p&gt;&lt;hr size=&quot;1&quot; style=&quot;border-style:solid;&quot;&gt;&lt;div style=&quot;height:2px;&quot;&gt;&lt;/div&gt;" style="verticalAlign=top;align=left;overflow=fill;html=1;whiteSpace=wrap;" vertex="1" parent="1">
          <mxGeometry x="440" y="315" width="120" height="615" as="geometry" />
        </mxCell>
        <mxCell id="OdxOix2kD28LtDTdaROv-13" value="" style="ellipse;html=1;shape=startState;fillColor=#000000;strokeColor=#ff0000;" vertex="1" parent="1">
          <mxGeometry x="365" y="350" width="30" height="30" as="geometry" />
        </mxCell>
        <mxCell id="OdxOix2kD28LtDTdaROv-14" value="" style="edgeStyle=orthogonalEdgeStyle;html=1;verticalAlign=bottom;endArrow=open;endSize=8;strokeColor=#ff0000;rounded=0;" edge="1" source="OdxOix2kD28LtDTdaROv-13" parent="1">
          <mxGeometry relative="1" as="geometry">
            <mxPoint x="380" y="410" as="targetPoint" />
          </mxGeometry>
        </mxCell>
        <mxCell id="OdxOix2kD28LtDTdaROv-15" value="Đăng nhập" style="rounded=1;whiteSpace=wrap;html=1;" vertex="1" parent="1">
          <mxGeometry x="345" y="410" width="70" height="35" as="geometry" />
        </mxCell>
        <mxCell id="OdxOix2kD28LtDTdaROv-16" value="Hiện ra màn hình chính" style="rounded=1;whiteSpace=wrap;html=1;" vertex="1" parent="1">
          <mxGeometry x="465" y="470" width="70" height="35" as="geometry" />
        </mxCell>
        <mxCell id="OdxOix2kD28LtDTdaROv-17" value="Chọn điểm danh" style="rounded=1;whiteSpace=wrap;html=1;" vertex="1" parent="1">
          <mxGeometry x="345" y="533" width="70" height="35" as="geometry" />
        </mxCell>
        <mxCell id="OdxOix2kD28LtDTdaROv-20" value="Yêu cầu quét khuôn mặt" style="rounded=1;whiteSpace=wrap;html=1;" vertex="1" parent="1">
          <mxGeometry x="457.5" y="600" width="85" height="35" as="geometry" />
        </mxCell>
        <mxCell id="OdxOix2kD28LtDTdaROv-21" value="Quét khuôn mặt" style="rounded=1;whiteSpace=wrap;html=1;" vertex="1" parent="1">
          <mxGeometry x="345" y="660" width="70" height="35" as="geometry" />
        </mxCell>
        <mxCell id="OdxOix2kD28LtDTdaROv-22" value="Xác nhận thành công" style="rounded=1;whiteSpace=wrap;html=1;" vertex="1" parent="1">
          <mxGeometry x="457.5" y="730" width="85" height="35" as="geometry" />
        </mxCell>
        <mxCell id="OdxOix2kD28LtDTdaROv-23" value="Quét mã QR" style="rounded=1;whiteSpace=wrap;html=1;" vertex="1" parent="1">
          <mxGeometry x="345" y="785" width="70" height="35" as="geometry" />
        </mxCell>
        <mxCell id="OdxOix2kD28LtDTdaROv-24" value="Xác nhận thành công" style="rounded=1;whiteSpace=wrap;html=1;" vertex="1" parent="1">
          <mxGeometry x="457.5" y="840" width="85" height="35" as="geometry" />
        </mxCell>
        <mxCell id="OdxOix2kD28LtDTdaROv-26" value="" style="ellipse;html=1;shape=endState;fillColor=#000000;strokeColor=#ff0000;" vertex="1" parent="1">
          <mxGeometry x="485" y="890" width="30" height="30" as="geometry" />
        </mxCell>
        <mxCell id="OdxOix2kD28LtDTdaROv-27" value="" style="html=1;verticalAlign=bottom;startArrow=none;startFill=0;endArrow=open;startSize=8;curved=0;rounded=0;endFill=0;entryX=0.5;entryY=0;entryDx=0;entryDy=0;exitX=0.5;exitY=1;exitDx=0;exitDy=0;" edge="1" parent="1" source="OdxOix2kD28LtDTdaROv-24" target="OdxOix2kD28LtDTdaROv-26">
          <mxGeometry width="60" relative="1" as="geometry">
            <mxPoint x="480" y="760" as="sourcePoint" />
            <mxPoint x="540" y="760" as="targetPoint" />
          </mxGeometry>
        </mxCell>
        <mxCell id="OdxOix2kD28LtDTdaROv-29" value="" style="endArrow=classic;html=1;rounded=0;exitX=0.397;exitY=0.978;exitDx=0;exitDy=0;exitPerimeter=0;entryX=0.5;entryY=0;entryDx=0;entryDy=0;edgeStyle=orthogonalEdgeStyle;" edge="1" parent="1" source="OdxOix2kD28LtDTdaROv-15" target="OdxOix2kD28LtDTdaROv-16">
          <mxGeometry width="50" height="50" relative="1" as="geometry">
            <mxPoint x="420" y="500" as="sourcePoint" />
            <mxPoint x="470" y="450" as="targetPoint" />
          </mxGeometry>
        </mxCell>
        <mxCell id="OdxOix2kD28LtDTdaROv-30" value="" style="endArrow=classic;html=1;rounded=0;edgeStyle=orthogonalEdgeStyle;exitX=0.5;exitY=1;exitDx=0;exitDy=0;" edge="1" parent="1" source="OdxOix2kD28LtDTdaROv-16" target="OdxOix2kD28LtDTdaROv-17">
          <mxGeometry width="50" height="50" relative="1" as="geometry">
            <mxPoint x="600.001304347826" y="607.5" as="sourcePoint" />
            <mxPoint x="662.61" y="567.5" as="targetPoint" />
          </mxGeometry>
        </mxCell>
        <mxCell id="OdxOix2kD28LtDTdaROv-31" value="" style="endArrow=classic;html=1;rounded=0;exitX=0.5;exitY=1;exitDx=0;exitDy=0;edgeStyle=orthogonalEdgeStyle;" edge="1" parent="1" source="OdxOix2kD28LtDTdaROv-17" target="OdxOix2kD28LtDTdaROv-20">
          <mxGeometry width="50" height="50" relative="1" as="geometry">
            <mxPoint x="220" y="630" as="sourcePoint" />
            <mxPoint x="270" y="580" as="targetPoint" />
          </mxGeometry>
        </mxCell>
        <mxCell id="OdxOix2kD28LtDTdaROv-32" value="" style="endArrow=classic;html=1;rounded=0;exitX=0.5;exitY=1;exitDx=0;exitDy=0;edgeStyle=orthogonalEdgeStyle;" edge="1" parent="1" source="OdxOix2kD28LtDTdaROv-20" target="OdxOix2kD28LtDTdaROv-21">
          <mxGeometry width="50" height="50" relative="1" as="geometry">
            <mxPoint x="130" y="700" as="sourcePoint" />
            <mxPoint x="180" y="650" as="targetPoint" />
          </mxGeometry>
        </mxCell>
        <mxCell id="OdxOix2kD28LtDTdaROv-33" value="" style="endArrow=classic;html=1;rounded=0;edgeStyle=orthogonalEdgeStyle;exitX=0.5;exitY=1;exitDx=0;exitDy=0;" edge="1" parent="1" source="OdxOix2kD28LtDTdaROv-21" target="OdxOix2kD28LtDTdaROv-22">
          <mxGeometry width="50" height="50" relative="1" as="geometry">
            <mxPoint x="190" y="730" as="sourcePoint" />
            <mxPoint x="240" y="680" as="targetPoint" />
          </mxGeometry>
        </mxCell>
        <mxCell id="OdxOix2kD28LtDTdaROv-36" value="" style="endArrow=classic;html=1;rounded=0;exitX=0.5;exitY=1;exitDx=0;exitDy=0;edgeStyle=orthogonalEdgeStyle;" edge="1" parent="1" source="OdxOix2kD28LtDTdaROv-22" target="OdxOix2kD28LtDTdaROv-23">
          <mxGeometry width="50" height="50" relative="1" as="geometry">
            <mxPoint x="180" y="700" as="sourcePoint" />
            <mxPoint x="240" y="790" as="targetPoint" />
          </mxGeometry>
        </mxCell>
        <mxCell id="OdxOix2kD28LtDTdaROv-37" value="" style="endArrow=classic;html=1;rounded=0;edgeStyle=orthogonalEdgeStyle;exitX=0.5;exitY=1;exitDx=0;exitDy=0;" edge="1" parent="1" source="OdxOix2kD28LtDTdaROv-23" target="OdxOix2kD28LtDTdaROv-24">
          <mxGeometry width="50" height="50" relative="1" as="geometry">
            <mxPoint x="160" y="730" as="sourcePoint" />
            <mxPoint x="210" y="680" as="targetPoint" />
          </mxGeometry>
        </mxCell>
      </root>
    </mxGraphModel>
  </diagram>
</mxfile>
